<svg version="1.1" xmlns="http://www.w3.org/2000/svg" xmlns:xlink="http://www.w3.org/1999/xlink" width="71.90035" height="52.47031" viewBox="0,0,71.90035,52.47031"><g transform="translate(-204.04982,-153.76485)"><g data-paper-data="{&quot;isPaintingLayer&quot;:true}" fill="#000000" fill-rule="nonzero" stroke="none" stroke-width="0.5" stroke-linecap="butt" stroke-linejoin="miter" stroke-miterlimit="10" stroke-dasharray="" stroke-dashoffset="0" style="mix-blend-mode: normal"><path d="M253.196,179.27747c-0.3937,0.52174 -1.52987,1.69165 -3.25605,0.70788c-2.17202,-1.23787 -0.93415,-3.40989 -0.93415,-3.40989l1.79793,-1.77933c3.2232,-0.98186 6.06951,-2.42671 8.95488,-3.9015c-0.11293,0.00785 -0.22587,0.01569 -0.3388,0.02353c-5.52157,-0.03638 -11.03297,-0.44061 -16.54146,-0.44783c-11.73641,-0.01538 -23.44083,0.80466 -35.1952,0.25053c0,0 -2.49723,-0.11774 -2.37949,-2.61496c0.11774,-2.49723 2.61496,-2.37949 2.61496,-2.37949c11.66983,0.55024 23.28867,-0.27131 34.94112,-0.25604c5.46292,0.00716 10.92681,0.41204 16.40203,0.4503c0.53521,-0.03792 1.07042,-0.07577 1.60564,-0.11356c-5.35292,-1.71707 -10.6199,-4.07999 -13.9124,-7.87669c0,0 -1.60824,-1.91405 0.30581,-3.52228c1.91405,-1.60824 3.52228,0.30581 3.52228,0.30581c2.44572,3.04808 6.02423,3.82617 9.58471,5.13204c3.78583,1.38852 7.33815,2.72342 11.25493,3.73086l2.39424,0.61582c1.04103,0.24196 1.8483,1.13886 1.92695,2.2607c0.06785,0.96768 -0.42447,1.84527 -1.20098,2.31519l-2.45231,1.55097l-0.00632,-0.01c-0.0182,0.01586 -0.03645,0.03167 -0.05477,0.04742c-1.45892,1.25454 -4.3225,2.14016 -6.04295,2.93239c-4.42278,2.03662 -8.37361,4.42684 -12.99062,5.98814z"/><path d="M226.80401,180.72253c0.3937,-0.52174 1.52987,-1.69165 3.25604,-0.70788c2.17202,1.23787 0.93415,3.40989 0.93415,3.40989l-1.79793,1.77933c-3.2232,0.98186 -6.06951,2.42671 -8.95488,3.90149c0.11293,-0.00785 0.22587,-0.01569 0.3388,-0.02353c5.52157,0.03639 11.03297,0.44062 16.54146,0.44784c11.73641,0.01538 23.44083,-0.80466 35.1952,-0.25053c0,0 2.49722,0.11774 2.37949,2.61496c-0.11774,2.49722 -2.61496,2.37949 -2.61496,2.37949c-11.66983,-0.55023 -23.28867,0.27131 -34.94112,0.25604c-5.46292,-0.00716 -10.92681,-0.41204 -16.40203,-0.45029c-0.53521,0.03792 -1.07043,0.07577 -1.60564,0.11356c5.35292,1.71707 10.6199,4.07999 13.9124,7.87668c0,0 1.60824,1.91405 -0.30581,3.52228c-1.91405,1.60824 -3.52228,-0.30581 -3.52228,-0.30581c-2.44572,-3.04808 -6.02423,-3.82617 -9.58471,-5.13204c-3.78583,-1.38852 -7.33816,-2.72342 -11.25493,-3.73086l-2.39424,-0.61582c-1.04103,-0.24196 -1.8483,-1.13886 -1.92695,-2.2607c-0.06785,-0.96767 0.42447,-1.84527 1.20098,-2.31519l2.45232,-1.55097l0.00632,0.01c0.0182,-0.01586 0.03645,-0.03167 0.05477,-0.04742c1.45892,-1.25454 4.3225,-2.14016 6.04295,-2.93239c4.42278,-2.03662 8.37361,-4.42684 12.99062,-5.98813z"/></g></g></svg>